<svg viewBox="0 0 24 24" width="24" height="24">
  <g transform="matrix(0.45833333,0,0,0.45833333,172.41667,171.5)">
    <polyline fill="currentColor" points="-352.3,-343.4 -354.6,-345.7 -328.8,-371.4 -326.6,-369.2 -352.3,-343.4" />
    <polyline fill="currentColor"
      points="-326,-354.9 -329.4,-354.9 -329.4,-368.6 -343.1,-368.6 -343.1,-372 -326,-372      -326,-354.9" />
    <path fill="currentColor"
      d="m -334.6,-324 h -34.3 c -2.8,0 -5.1,-2.3 -5.1,-5.1 v -34.3 c 0,-2.8 2.3,-5.1 5.1,-5.1 h 18.9 v 3.4 h -18.9 c -0.9,0 -1.7,0.8 -1.7,1.7 v 34.3 c 0,0.9 0.8,1.7 1.7,1.7 h 34.3 c 0.9,0 1.7,-0.8 1.7,-1.7 V -348 h 3.4 v 18.9 c 0.1,2.8 -2.2,5.1 -5.1,5.1" />
  </g>
</svg>