<?xml version="1.0" encoding="UTF-8" standalone="no"?>
<svg
   xmlns:dc="http://purl.org/dc/elements/1.1/"
   xmlns:cc="http://creativecommons.org/ns#"
   xmlns:rdf="http://www.w3.org/1999/02/22-rdf-syntax-ns#"
   xmlns:svg="http://www.w3.org/2000/svg"
   xmlns="http://www.w3.org/2000/svg"
   xmlns:sodipodi="http://sodipodi.sourceforge.net/DTD/sodipodi-0.dtd"
   xmlns:inkscape="http://www.inkscape.org/namespaces/inkscape"
   width="210mm"
   height="297mm"
   viewBox="0 0 210 297"
   version="1.1"
   id="svg8"
   inkscape:version="1.0.2-2 (e86c870879, 2021-01-15)"
   sodipodi:docname="绘图.svg"
   inkscape:export-filename="C:\Users\rxliuli\Pictures\Saved Pictures\get_started16.png"
   inkscape:export-xdpi="2.25"
   inkscape:export-ydpi="2.25">
  <defs
     id="defs2">
    <linearGradient
       x1="0"
       y1="0"
       x2="1"
       y2="0"
       gradientUnits="userSpaceOnUse"
       gradientTransform="matrix(-4387.91,4387.91,4387.91,4387.91,4753.95,366.05)"
       spreadMethod="pad"
       id="linearGradient26">
      <stop
   style="stop-opacity:1;stop-color:#004caf"
   offset="0"
   id="stop22" />

      <stop
   style="stop-opacity:1;stop-color:#1f95f8"
   offset="1"
   id="stop24" />

    </linearGradient>
  </defs>
  <sodipodi:namedview
     id="base"
     pagecolor="#ffffff"
     bordercolor="#666666"
     borderopacity="1.0"
     inkscape:pageopacity="0.0"
     inkscape:pageshadow="2"
     inkscape:zoom="0.7"
     inkscape:cx="426.94519"
     inkscape:cy="734.76662"
     inkscape:document-units="mm"
     inkscape:current-layer="layer1"
     inkscape:document-rotation="0"
     showgrid="false"
     inkscape:window-width="1301"
     inkscape:window-height="1199"
     inkscape:window-x="26"
     inkscape:window-y="26"
     inkscape:window-maximized="0"
     inkscape:snap-global="true" />
  <metadata
     id="metadata5">
    <rdf:RDF>
      <cc:Work
         rdf:about="">
        <dc:format>image/svg+xml</dc:format>
        <dc:type
           rdf:resource="http://purl.org/dc/dcmitype/StillImage" />
        <dc:title></dc:title>
      </cc:Work>
    </rdf:RDF>
  </metadata>
  <g
     inkscape:label="图层 1"
     inkscape:groupmode="layer"
     id="layer1">
    <g
       id="g10"
       transform="matrix(0.35277777,0,0,-0.35277777,15.522228,231.6742)"
       inkscape:export-xdpi="6.7500005"
       inkscape:export-ydpi="6.7500005"
       inkscape:export-filename="C:\Users\rxliuli\Pictures\Saved Pictures\g10.png">
    <g
   id="g12"
   transform="scale(0.1)">
      <g
   id="g14">
        <g
   id="g16"
   clip-path="url(#clipPath20)">
          <path
   d="M 3873.89,0 H 1246.11 C 560.754,0 0,560.75 0,1246.11 V 3873.88 C 0,4559.25 560.754,5120 1246.11,5120 H 3873.89 C 4559.25,5120 5120,4559.25 5120,3873.88 V 1246.11 C 5120,560.75 4559.25,0 3873.89,0"
   style="fill:url(#linearGradient26);fill-opacity:1;fill-rule:nonzero;stroke:none"
   id="path28" />

        </g>

      </g>

      <path
   d="M 3961.59,4435.23 H 2570.18 c -13.15,0 -23.78,-10.64 -23.78,-23.77 v -441.84 c 0,-14.87 12.04,-26.92 26.92,-26.92 h 190.77 c 77.16,0 139.73,-59.35 146.43,-134.77 V 3505 3336.23 1728.75 1717.36 h -0.05 c 0.48,-16.84 -0.19,-33.4 -1.83,-49.71 -0.18,-2.38 -0.5,-4.73 -0.79,-7.09 -1.1,-9.53 -2.32,-19.01 -4.17,-28.29 -1.01,-5.29 -2.44,-10.44 -3.71,-15.65 -1.71,-6.93 -3.09,-13.97 -5.22,-20.75 -12.58,-40.27 -32.47,-77.62 -59.98,-110.5 -1.01,-1.17 -2.26,-2.25 -3.26,-3.41 -8.39,-9.72 -17.2,-19.19 -26.95,-28.06 -9.84,-8.95 -20.26,-17.27 -31.21,-25 -77.84,-55.14 -182.61,-79.4 -299.67,-68.2 -149.26,14.03 -297.34,81.72 -417.03,190.62 -119.67,108.89 -194.08,243.62 -209.48,379.41 -13.85,121.48 22.55,228.38 102.42,301.05 0.21,0.16 0.4,0.31 0.56,0.48 3.09,2.77 6.49,5.2 9.67,7.87 57.16,47.89 131.67,76.91 216.7,84.91 0.96,0.09 1.88,0.24 2.79,0.32 8.95,0.79 18.07,1.15 27.27,1.49 4.81,0.16 9.56,0.5 14.44,0.54 1.62,0.02 3.16,0.19 4.78,0.19 2.9,0 5.91,-0.38 8.81,-0.42 13.4,-0.21 26.9,-0.76 40.67,-1.94 1.74,-0.14 3.4,-0.08 5.19,-0.24 1.27,-0.13 2.53,-0.41 3.8,-0.54 78,-7.82 155.23,-31.11 228.52,-66.4 1.53,-0.07 3.3,-0.54 5.51,-1.76 22.34,-12.34 26.62,0.9 27.28,9.65 v 382.24 282.82 c 0,19.05 -13.25,35.9 -31.83,39.99 -394.76,86.88 -782.08,-3.55 -1055.38,-252.34 -238.75,-217.18 -354.24,-530.58 -316.82,-859.79 33.39,-293.23 183.91,-574.94 423.88,-793.33 233.89,-212.79 531.69,-345.86 838.88,-374.801 42.33,-3.918 84.86,-5.938 126.36,-5.938 293.38,0 565.61,100.598 766.54,283.379 190.34,173.3 304.35,411.27 321.08,670.16 l 1.55,1697.91 h 0.17 v 453.97 h 0.06 v 7.92 c 1.72,80.12 67.05,144.58 147.61,144.58 h 190.77 c 14.86,0 26.92,12.05 26.92,26.92 v 441.84 c 0,13.13 -10.63,23.77 -23.78,23.77"
   style="fill:#ffffff;fill-opacity:1;fill-rule:nonzero;stroke:none"
   id="path30" />

    </g>

  </g>
    <g
       id="g53"
       transform="matrix(0.0937947,0,0,0.09191881,150.30365,195.00124)">
      <path
         d="m 255.878,133.451 c 0,-10.734 -0.871,-18.567 -2.756,-26.69 H 130.55 v 48.448 h 71.947 c -1.45,12.04 -9.283,30.172 -26.69,42.356 l -0.244,1.622 38.755,30.023 2.685,0.268 c 24.659,-22.774 38.875,-56.282 38.875,-96.027"
         fill="#4285f4"
         id="path33" />
      <path
         d="m 130.55,261.1 c 35.248,0 64.839,-11.605 86.453,-31.622 l -41.196,-31.913 c -11.024,7.688 -25.82,13.055 -45.257,13.055 -34.523,0 -63.824,-22.773 -74.269,-54.25 l -1.531,0.13 -40.298,31.187 -0.527,1.465 C 35.393,231.798 79.49,261.1 130.55,261.1"
         fill="#34a853"
         id="path35" />
      <path
         d="m 56.281,156.37 c -2.756,-8.123 -4.351,-16.827 -4.351,-25.82 0,-8.994 1.595,-17.697 4.206,-25.82 L 56.063,103 15.26,71.312 13.925,71.947 C 5.077,89.644 0,109.517 0,130.55 c 0,21.033 5.077,40.905 13.925,58.602 L 56.281,156.37"
         fill="#fbbc05"
         id="path37" />
      <path
         d="m 130.55,50.479 c 24.514,0 41.05,10.589 50.479,19.438 L 217.873,33.943 C 195.245,12.91 165.798,0 130.55,0 79.49,0 35.393,29.301 13.925,71.947 L 56.136,104.73 C 66.726,73.253 96.027,50.479 130.55,50.479"
         fill="#eb4335"
         id="path39" />
    </g>
    <path
       d="m 172.62392,170.29917 3.05819,5.30016 4.51104,1.6276 -16.28227,6.85073 6.67424,-4.75121 v -13.5634 l -6.8709,-1.68539 v 20.17335 l 6.83077,3.82665 17.16923,-8.1862 v -5.89727 z"
       fill="#00897b"
       id="path55"
       style="stroke-width:0.0358944" />
    <path
       d="m 168.71321,143.79805 c 2.84262,-0.56122 2.45549,-3.67931 2.37002,-4.36145 -0.13876,-1.05137 -1.48516,-2.88733 -3.31421,-2.74241 -2.30065,0.18922 -2.6365,3.23993 -2.6365,3.23993 -0.3107,1.41044 0.74409,4.42422 3.58069,3.86393 z m 3.01859,5.42297 c -0.0835,0.21969 -0.26948,0.78091 -0.10759,1.2692 0.31674,1.09567 1.35344,1.1446 1.35344,1.1446 h 1.48818 v -3.34055 h -1.59376 c -0.71695,0.19661 -1.06285,0.70798 -1.14027,0.92675 z m 2.25741,-10.65302 c 1.57063,0 2.8386,-1.65874 2.8386,-3.70978 0,-2.04919 -1.26898,-3.707 -2.8386,-3.707 -1.56762,0 -2.83961,1.65781 -2.83961,3.707 0,2.05104 1.27199,3.70978 2.83961,3.70978 z m 6.76116,0.24461 c 2.09854,0.25015 3.44795,-1.80551 3.71542,-3.36363 0.27351,-1.55628 -1.07993,-3.36362 -2.5661,-3.67377 -1.48818,-0.31292 -3.3474,1.87565 -3.51633,3.3027 -0.20111,1.74458 0.2725,3.48732 2.36701,3.7347 z m 5.14227,9.15951 c 0,0 -3.24685,-2.3058 -5.14126,-4.79806 -2.56913,-3.6747 -6.21919,-2.17934 -7.4399,-0.31107 -1.21568,1.86827 -3.11009,3.05071 -3.37857,3.36363 -0.2725,0.3083 -3.92156,2.11657 -3.11211,5.41927 0.81046,3.30086 3.65509,3.23809 3.65509,3.23809 0,0 2.09653,0.18923 4.5289,-0.31014 2.43337,-0.49569 4.52789,0.12369 4.52789,0.12369 0,0 5.68324,1.74735 7.23879,-1.61628 1.55354,-3.36455 -0.87883,-5.10913 -0.87883,-5.10913 z m -9.72446,5.00575 h -3.69531 c -1.59577,-0.29169 -2.23126,-1.29229 -2.31171,-1.46213 -0.0784,-0.17353 -0.53091,-0.97752 -0.2916,-2.34364 0.68979,-2.04827 2.6566,-2.19596 2.6566,-2.19596 h 1.96682 v -2.21903 l 1.6752,0.0231 z m 6.88183,-0.0231 h -4.25237 c -1.64806,-0.39045 -1.72549,-1.46489 -1.72549,-1.46489 v -4.31715 l 1.72549,-0.0249 v 3.87961 c 0.10457,0.41261 0.66465,0.4883 0.66465,0.4883 h 1.75163 v -4.34299 h 1.83509 v 5.78204 z m 6.01909,-11.52531 c 0,-0.74583 -0.67471,-2.98979 -3.17646,-2.98979 -2.50578,0 -2.84062,2.11842 -2.84062,3.61562 0,1.4289 0.13173,3.42455 3.24484,3.36086 3.11311,-0.0628 2.77224,-3.23717 2.77224,-3.98669 z"
       id="path66"
       style="stroke-width:0.963411" />
  </g>
</svg>
