<?xml version="1.0" encoding="UTF-8" standalone="no"?>
<svg
   inkscape:version="1.1 (c68e22c387, 2021-05-23)"
   sodipodi:docname="joplin-vscode-plugin.svg"
   version="1.1"
   id="svg2"
   xml:space="preserve"
   width="682.66669"
   height="682.66669"
   viewBox="0 0 682.66669 682.66669"
   xmlns:inkscape="http://www.inkscape.org/namespaces/inkscape"
   xmlns:sodipodi="http://sodipodi.sourceforge.net/DTD/sodipodi-0.dtd"
   xmlns="http://www.w3.org/2000/svg"
   xmlns:svg="http://www.w3.org/2000/svg"
   xmlns:rdf="http://www.w3.org/1999/02/22-rdf-syntax-ns#"
   xmlns:cc="http://creativecommons.org/ns#"
   xmlns:dc="http://purl.org/dc/elements/1.1/"><title
   id="title842">Joplin Icon</title><metadata
   id="metadata15"><rdf:RDF><cc:Work
       rdf:about=""><dc:format>image/svg+xml</dc:format><dc:type
         rdf:resource="http://purl.org/dc/dcmitype/StillImage" /><dc:title>Joplin Icon</dc:title><cc:license
         rdf:resource="MIT -- https://github.com/laurent22/joplin/blob/master/LICENSE" /><dc:creator><cc:Agent><dc:title>Laurent Cozic</dc:title></cc:Agent></dc:creator></cc:Work></rdf:RDF></metadata><sodipodi:namedview
   inkscape:current-layer="svg2"
   inkscape:window-maximized="1"
   inkscape:window-y="-8"
   inkscape:window-x="-8"
   inkscape:cy="341.33333"
   inkscape:cx="208.25397"
   inkscape:zoom="1.4765625"
   showgrid="false"
   id="namedview13"
   inkscape:window-height="1417"
   inkscape:window-width="2498"
   inkscape:pageshadow="2"
   inkscape:pageopacity="0"
   guidetolerance="10"
   gridtolerance="10"
   objecttolerance="10"
   borderopacity="1"
   bordercolor="#666666"
   pagecolor="#ffffff"
   inkscape:pagecheckerboard="0" />
  <defs
   id="defs6">
    <linearGradient
   x1="0"
   y1="0"
   x2="1"
   y2="0"
   gradientUnits="userSpaceOnUse"
   gradientTransform="matrix(-4387.91,4387.91,4387.91,4387.91,4753.95,366.05)"
   spreadMethod="pad"
   id="linearGradient26">
      <stop
   style="stop-opacity:1;stop-color:#004caf"
   offset="0"
   id="stop22" />
      <stop
   style="stop-opacity:1;stop-color:#1f95f8"
   offset="1"
   id="stop24" />
    </linearGradient>
  <filter
   id="filter0_d"
   x="-8.39411"
   y="15.8291"
   width="116.727"
   height="92.2456"
   filterUnits="userSpaceOnUse"
   color-interpolation-filters="sRGB"><feFlood
     flood-opacity="0"
     result="BackgroundImageFix"
     id="feFlood1018" /><feColorMatrix
     in="SourceAlpha"
     type="matrix"
     values="0 0 0 0 0 0 0 0 0 0 0 0 0 0 0 0 0 0 127 0"
     id="feColorMatrix1020" /><feOffset
     id="feOffset1022" /><feGaussianBlur
     stdDeviation="4.16667"
     id="feGaussianBlur1024" /><feColorMatrix
     type="matrix"
     values="0 0 0 0 0 0 0 0 0 0 0 0 0 0 0 0 0 0 0.25 0"
     id="feColorMatrix1026" /><feBlend
     mode="overlay"
     in2="BackgroundImageFix"
     result="effect1_dropShadow"
     id="feBlend1028" /><feBlend
     mode="normal"
     in="SourceGraphic"
     in2="effect1_dropShadow"
     result="shape"
     id="feBlend1030" /></filter><filter
   id="filter1_d"
   x="60.4167"
   y="-8.07558"
   width="47.9167"
   height="116.151"
   filterUnits="userSpaceOnUse"
   color-interpolation-filters="sRGB"><feFlood
     flood-opacity="0"
     result="BackgroundImageFix"
     id="feFlood1033" /><feColorMatrix
     in="SourceAlpha"
     type="matrix"
     values="0 0 0 0 0 0 0 0 0 0 0 0 0 0 0 0 0 0 127 0"
     id="feColorMatrix1035" /><feOffset
     id="feOffset1037" /><feGaussianBlur
     stdDeviation="4.16667"
     id="feGaussianBlur1039" /><feColorMatrix
     type="matrix"
     values="0 0 0 0 0 0 0 0 0 0 0 0 0 0 0 0 0 0 0.25 0"
     id="feColorMatrix1041" /><feBlend
     mode="overlay"
     in2="BackgroundImageFix"
     result="effect1_dropShadow"
     id="feBlend1043" /><feBlend
     mode="normal"
     in="SourceGraphic"
     in2="effect1_dropShadow"
     result="shape"
     id="feBlend1045" /></filter><linearGradient
   id="paint0_linear"
   x1="49.9392"
   y1="0.257812"
   x2="49.9392"
   y2="99.7423"
   gradientUnits="userSpaceOnUse"><stop
     stop-color="white"
     id="stop1048" /><stop
     offset="1"
     stop-color="white"
     stop-opacity="0"
     id="stop1050" /></linearGradient></defs>
  <g
   id="g10"
   transform="matrix(1.3333333,0,0,-1.3333333,0,682.66667)">
    <g
   id="g12"
   transform="scale(0.1)">
      <g
   id="g14">
        <g
   id="g16"
   clip-path="url(#clipPath20)">
          <path
   d="M 3873.89,0 H 1246.11 C 560.754,0 0,560.75 0,1246.11 V 3873.88 C 0,4559.25 560.754,5120 1246.11,5120 H 3873.89 C 4559.25,5120 5120,4559.25 5120,3873.88 V 1246.11 C 5120,560.75 4559.25,0 3873.89,0"
   style="fill:url(#linearGradient26);fill-opacity:1;fill-rule:nonzero;stroke:none"
   id="path28" />
        </g>
      </g>
      <path
   d="M 3961.59,4435.23 H 2570.18 c -13.15,0 -23.78,-10.64 -23.78,-23.77 v -441.84 c 0,-14.87 12.04,-26.92 26.92,-26.92 h 190.77 c 77.16,0 139.73,-59.35 146.43,-134.77 V 3505 3336.23 1728.75 1717.36 h -0.05 c 0.48,-16.84 -0.19,-33.4 -1.83,-49.71 -0.18,-2.38 -0.5,-4.73 -0.79,-7.09 -1.1,-9.53 -2.32,-19.01 -4.17,-28.29 -1.01,-5.29 -2.44,-10.44 -3.71,-15.65 -1.71,-6.93 -3.09,-13.97 -5.22,-20.75 -12.58,-40.27 -32.47,-77.62 -59.98,-110.5 -1.01,-1.17 -2.26,-2.25 -3.26,-3.41 -8.39,-9.72 -17.2,-19.19 -26.95,-28.06 -9.84,-8.95 -20.26,-17.27 -31.21,-25 -77.84,-55.14 -182.61,-79.4 -299.67,-68.2 -149.26,14.03 -297.34,81.72 -417.03,190.62 -119.67,108.89 -194.08,243.62 -209.48,379.41 -13.85,121.48 22.55,228.38 102.42,301.05 0.21,0.16 0.4,0.31 0.56,0.48 3.09,2.77 6.49,5.2 9.67,7.87 57.16,47.89 131.67,76.91 216.7,84.91 0.96,0.09 1.88,0.24 2.79,0.32 8.95,0.79 18.07,1.15 27.27,1.49 4.81,0.16 9.56,0.5 14.44,0.54 1.62,0.02 3.16,0.19 4.78,0.19 2.9,0 5.91,-0.38 8.81,-0.42 13.4,-0.21 26.9,-0.76 40.67,-1.94 1.74,-0.14 3.4,-0.08 5.19,-0.24 1.27,-0.13 2.53,-0.41 3.8,-0.54 78,-7.82 155.23,-31.11 228.52,-66.4 1.53,-0.07 3.3,-0.54 5.51,-1.76 22.34,-12.34 26.62,0.9 27.28,9.65 v 382.24 282.82 c 0,19.05 -13.25,35.9 -31.83,39.99 -394.76,86.88 -782.08,-3.55 -1055.38,-252.34 -238.75,-217.18 -354.24,-530.58 -316.82,-859.79 33.39,-293.23 183.91,-574.94 423.88,-793.33 233.89,-212.79 531.69,-345.86 838.88,-374.801 42.33,-3.918 84.86,-5.938 126.36,-5.938 293.38,0 565.61,100.598 766.54,283.379 190.34,173.3 304.35,411.27 321.08,670.16 l 1.55,1697.91 h 0.17 v 453.97 h 0.06 v 7.92 c 1.72,80.12 67.05,144.58 147.61,144.58 h 190.77 c 14.86,0 26.92,12.05 26.92,26.92 v 441.84 c 0,13.13 -10.63,23.77 -23.78,23.77"
   style="fill:#ffffff;fill-opacity:1;fill-rule:nonzero;stroke:none"
   id="path30" />
    </g>
  </g>
<g
   id="g872"
   transform="translate(36.571429,-105.65079)"><g
     style="fill:none"
     id="g1086"
     transform="matrix(2.2543364,0,0,2.2543364,376.66379,413.8442)"><g
       mask="url(#mask0)"
       id="g1016"><path
         d="M 96.4614,10.7962 75.8569,0.875542 C 73.4719,-0.272773 70.6217,0.211611 68.75,2.08333 L 1.29858,63.5832 c -1.814273,1.6541 -1.812187,4.5105 0.0045,6.162 l 5.50964,5.0088 c 1.48521,1.3502 3.72198,1.4496 5.32108,0.2365 L 93.3609,13.3699 C 96.086,11.3026 100,13.2462 100,16.6667 v -0.2392 c 0,-2.401 -1.3754,-4.5897 -3.5386,-5.6313 z"
         fill="#0065a9"
         id="path1002" /><g
         filter="url(#filter0_d)"
         id="g1006"><path
           d="m 96.4614,89.2038 -20.6045,9.9207 c -2.385,1.1485 -5.2352,0.6639 -7.1069,-1.2078 L 1.29858,36.4169 c -1.814273,-1.6542 -1.812187,-4.5106 0.0045,-6.1621 L 6.81272,25.246 C 8.29793,23.8958 10.5347,23.7964 12.1338,25.0095 L 93.3609,86.6301 C 96.086,88.6974 100,86.7538 100,83.3334 v 0.2392 c 0,2.4009 -1.3754,4.5896 -3.5386,5.6312 z"
           fill="#007acc"
           id="path1004" /></g><g
         filter="url(#filter1_d)"
         id="g1010"><path
           d="M 75.8578,99.1263 C 73.4721,100.274 70.6219,99.7885 68.75,97.9166 71.0564,100.223 75,98.5895 75,95.3278 V 4.67213 C 75,1.41039 71.0564,-0.223106 68.75,2.08329 70.6219,0.211402 73.4721,-0.273666 75.8578,0.873633 L 96.4587,10.7807 C 98.6234,11.8217 100,14.0112 100,16.4132 v 67.1739 c 0,2.402 -1.3766,4.5915 -3.5414,5.6325 z"
           fill="#1f9cf0"
           id="path1008" /></g><g
         style="mix-blend-mode:overlay"
         opacity="0.25"
         id="g1014"><path
           fill-rule="evenodd"
           clip-rule="evenodd"
           d="m 70.8511,99.3171 c 1.575,0.6135 3.371,0.5742 4.9606,-0.1907 L 96.4,89.2197 c 2.1634,-1.041 3.5392,-3.2305 3.5392,-5.6326 V 16.4133 c 0,-2.4021 -1.3757,-4.5916 -3.5391,-5.6326 L 75.8117,0.873695 C 73.7255,-0.13019 71.2838,0.115699 69.4527,1.44688 69.1912,1.63705 68.942,1.84937 68.7082,2.08335 L 29.2943,38.0414 12.1264,25.0096 C 10.5283,23.7964 8.29285,23.8959 6.80855,25.246 l -5.5063,5.0088 c -1.815584,1.6516 -1.817665,4.5079 -0.0045,6.1621 L 16.1863,50 1.29775,63.5832 c -1.813165,1.6542 -1.811084,4.5105 0.0045,6.162 l 5.5063,5.0088 c 1.4843,1.3502 3.71975,1.4496 5.31785,0.2365 L 29.2943,61.9586 68.7082,97.9167 c 0.6235,0.6238 1.3556,1.0937 2.1429,1.4004 z M 74.9544,27.2989 45.0483,50 74.9544,72.7012 Z"
           fill="url(#paint0_linear)"
           id="path1012"
           style="fill:url(#paint0_linear)" /></g></g></g></g></svg>
