<?xml version="1.0" encoding="UTF-8" standalone="no"?>
<svg
   width="128px"
   height="128px"
   viewBox="0 0 128 128"
   version="1.1"
   id="svg8"
   inkscape:version="1.2.2 (732a01da63, 2022-12-09)"
   sodipodi:docname="icon.svg"
   inkscape:export-filename="C:\Users\rxliuli\Pictures\Saved Pictures\get_started16.png"
   inkscape:export-xdpi="2.25"
   inkscape:export-ydpi="2.25"
   xmlns:inkscape="http://www.inkscape.org/namespaces/inkscape"
   xmlns:sodipodi="http://sodipodi.sourceforge.net/DTD/sodipodi-0.dtd"
   xmlns="http://www.w3.org/2000/svg"
   xmlns:svg="http://www.w3.org/2000/svg"
   xmlns:rdf="http://www.w3.org/1999/02/22-rdf-syntax-ns#"
   xmlns:cc="http://creativecommons.org/ns#"
   xmlns:dc="http://purl.org/dc/elements/1.1/">
  <defs
     id="defs2">
    <linearGradient
       x1="0"
       y1="0"
       x2="1"
       y2="0"
       gradientUnits="userSpaceOnUse"
       gradientTransform="matrix(-4387.91,4387.91,4387.91,4387.91,4753.95,366.05)"
       spreadMethod="pad"
       id="linearGradient26">
      <stop
         style="stop-opacity:1;stop-color:#004caf"
         offset="0"
         id="stop22" />
      <stop
         style="stop-opacity:1;stop-color:#1f95f8"
         offset="1"
         id="stop24" />
    </linearGradient>
  </defs>
  <sodipodi:namedview
     id="base"
     pagecolor="#ffffff"
     bordercolor="#666666"
     borderopacity="1.0"
     inkscape:pageopacity="0.0"
     inkscape:pageshadow="2"
     inkscape:zoom="3.959798"
     inkscape:cx="61.871843"
     inkscape:cy="92.428958"
     inkscape:document-units="mm"
     inkscape:current-layer="layer1"
     inkscape:document-rotation="0"
     showgrid="false"
     inkscape:window-width="2498"
     inkscape:window-height="1417"
     inkscape:window-x="-8"
     inkscape:window-y="-8"
     inkscape:window-maximized="1"
     inkscape:snap-global="true"
     inkscape:showpageshadow="2"
     inkscape:pagecheckerboard="0"
     inkscape:deskcolor="#d1d1d1"
     inkscape:lockguides="false" />
  <metadata
     id="metadata5">
    <rdf:RDF>
      <cc:Work
         rdf:about="">
        <dc:format>image/svg+xml</dc:format>
        <dc:type
           rdf:resource="http://purl.org/dc/dcmitype/StillImage" />
        <dc:title />
      </cc:Work>
    </rdf:RDF>
  </metadata>
  <g
     inkscape:label="图层 1"
     inkscape:groupmode="layer"
     id="layer1">
    <g
       id="g7091"
       transform="matrix(0.26458333,0,0,0.26458333,-3.2996749,-150.32113)">
      <path
         inkscape:connector-curvature="0"
         id="path4714"
         d="m 232.83952,614.96702 c -85.07794,9e-5 -154.04736,68.96898 -154.04799,154.0468 -4.4e-5,85.07829 68.96958,154.04793 154.04799,154.04802 85.07841,-9e-5 154.04803,-68.96973 154.04799,-154.04802 -6.3e-4,-85.07782 -68.97005,-154.04671 -154.04799,-154.0468 z m 0,26.77613 c 71.77417,-2.6e-4 129.95878,56.98083 129.9588,127.27067 -2e-5,70.28984 -58.18463,127.27093 -129.9588,127.27067 -71.7737,-4e-4 -129.95756,-56.9813 -129.95758,-127.27067 2e-5,-70.28937 58.18388,-127.27027 129.95758,-127.27067 z"
         style="opacity:1;fill:#1781e4;fill-opacity:1;stroke:none;stroke-width:39.569;stroke-dasharray:none;stroke-opacity:1"
         sodipodi:nodetypes="ccccccscsc" />
      <rect
         ry="18.08342"
         rx="33.249443"
         transform="matrix(0.65316768,0.7572133,-0.60689051,0.79478545,0,0)"
         y="319.55432"
         x="794.8775"
         height="36.16684"
         width="173.02675"
         id="rect4721"
         style="opacity:1;fill:#1781e4;fill-opacity:1;stroke:none;stroke-opacity:1" />
    </g>
    <g
       id="g4341"
       transform="matrix(0.58962118,0,0,0.58962118,40.418515,34.525493)">
      <rect
         id="rect4300"
         transform="matrix(0.99466,0.10323,-0.10584,0.99438,0,0)"
         height="55.736"
         width="44.338001"
         y="2.8534999"
         x="11.261"
         fill="#2ea99c" />
      <rect
         id="rect4302"
         transform="matrix(0.99865,0.05199,-0.052684,0.99861,0,0)"
         height="55.784"
         width="44.120998"
         y="4.3724999"
         x="12.186"
         fill="#f77462" />
      <rect
         id="rect2820"
         height="56"
         width="44"
         y="6"
         x="13"
         fill="#f9d97b" />
      <path
         id="path4275-2"
         d="M 46.5,5.4184 V 4.43479 c 0,-1.9672 -1,-3.9344 -3,-3.9344 -2,0 -3,1.9672 -3,3.9344 v 8.8525 c 0,2.9508 4,2.9508 4,0 v -9.8361 m -6,0 v 1.9672"
         stroke="#000000"
         stroke-linecap="square"
         fill="none" />
      <g
         id="text4304"
         fill="#9f482d"
         transform="matrix(1.0011,0,0,1.0011,9.8098,-3.2407)">
        <path
           id="path4309"
           d="m 33.34,33.996 -0.51562,0.33984 c -0.44532,0.28907 -0.82813,0.57813 -1.1484,0.86719 -0.06251,-0.28125 -0.21876,-0.73437 -0.46875,-1.3594 l -0.258,-0.668 c -0.591,-1.721 -0.949,-3.176 -2.789,-3.961 0.63281,-0.57812 1.1875,-0.86718 1.6641,-0.86719 0.64062,10e-6 1.3476,0.8711 2.1211,2.6133 l 0.42188,0.9375 c 2.039,-3.656 7.633,-9.898 10.633,-11.898 -0.21405,0.48913 0.41276,0.58724 0,1 -3.9466,3.7976 -7.6021,7.8657 -9.6602,12.996"
           fill="#9f482d" />
      </g>
      <rect
         id="rect4317"
         fill-opacity="0.43781"
         height="5"
         width="20"
         y="24"
         x="17"
         fill="#9f482d" />
      <rect
         id="rect4321"
         fill-opacity="0.43781"
         height="5"
         width="20"
         y="44"
         x="17"
         fill="#9f482d" />
    </g>
  </g>
</svg>
