<?xml version="1.0" encoding="UTF-8" standalone="no"?>
<svg
   inkscape:version="1.1 (c68e22c387, 2021-05-23)"
   sodipodi:docname="joplin-batch.svg"
   version="1.1"
   id="svg2"
   xml:space="preserve"
   width="682.66669"
   height="682.66669"
   viewBox="0 0 682.66669 682.66669"
   xmlns:inkscape="http://www.inkscape.org/namespaces/inkscape"
   xmlns:sodipodi="http://sodipodi.sourceforge.net/DTD/sodipodi-0.dtd"
   xmlns="http://www.w3.org/2000/svg"
   xmlns:svg="http://www.w3.org/2000/svg"
   xmlns:rdf="http://www.w3.org/1999/02/22-rdf-syntax-ns#"
   xmlns:cc="http://creativecommons.org/ns#"
   xmlns:dc="http://purl.org/dc/elements/1.1/"><title
   id="title842">Joplin Icon</title><metadata
   id="metadata15"><rdf:RDF><cc:Work
       rdf:about=""><dc:format>image/svg+xml</dc:format><dc:type
         rdf:resource="http://purl.org/dc/dcmitype/StillImage" /><dc:title>Joplin Icon</dc:title><cc:license
         rdf:resource="MIT -- https://github.com/laurent22/joplin/blob/master/LICENSE" /><dc:creator><cc:Agent><dc:title>Laurent Cozic</dc:title></cc:Agent></dc:creator></cc:Work></rdf:RDF></metadata><sodipodi:namedview
   inkscape:current-layer="svg2"
   inkscape:window-maximized="1"
   inkscape:window-y="-8"
   inkscape:window-x="-8"
   inkscape:cy="341.33333"
   inkscape:cx="341.67196"
   inkscape:zoom="1.4765625"
   showgrid="false"
   id="namedview13"
   inkscape:window-height="1417"
   inkscape:window-width="2498"
   inkscape:pageshadow="2"
   inkscape:pageopacity="0"
   guidetolerance="10"
   gridtolerance="10"
   objecttolerance="10"
   borderopacity="1"
   bordercolor="#666666"
   pagecolor="#ffffff"
   inkscape:pagecheckerboard="0" />
  <defs
   id="defs6">
    <linearGradient
   x1="0"
   y1="0"
   x2="1"
   y2="0"
   gradientUnits="userSpaceOnUse"
   gradientTransform="matrix(-4387.91,4387.91,4387.91,4387.91,4753.95,366.05)"
   spreadMethod="pad"
   id="linearGradient26">
      <stop
   style="stop-opacity:1;stop-color:#004caf"
   offset="0"
   id="stop22" />
      <stop
   style="stop-opacity:1;stop-color:#1f95f8"
   offset="1"
   id="stop24" />
    </linearGradient>
  </defs>
  <g
   id="g10"
   transform="matrix(1.3333333,0,0,-1.3333333,0,682.66667)">
    <g
   id="g12"
   transform="scale(0.1)">
      <g
   id="g14">
        <g
   id="g16"
   clip-path="url(#clipPath20)">
          <path
   d="M 3873.89,0 H 1246.11 C 560.754,0 0,560.75 0,1246.11 V 3873.88 C 0,4559.25 560.754,5120 1246.11,5120 H 3873.89 C 4559.25,5120 5120,4559.25 5120,3873.88 V 1246.11 C 5120,560.75 4559.25,0 3873.89,0"
   style="fill:url(#linearGradient26);fill-opacity:1;fill-rule:nonzero;stroke:none"
   id="path28" />
        </g>
      </g>
      <path
   d="M 3961.59,4435.23 H 2570.18 c -13.15,0 -23.78,-10.64 -23.78,-23.77 v -441.84 c 0,-14.87 12.04,-26.92 26.92,-26.92 h 190.77 c 77.16,0 139.73,-59.35 146.43,-134.77 V 3505 3336.23 1728.75 1717.36 h -0.05 c 0.48,-16.84 -0.19,-33.4 -1.83,-49.71 -0.18,-2.38 -0.5,-4.73 -0.79,-7.09 -1.1,-9.53 -2.32,-19.01 -4.17,-28.29 -1.01,-5.29 -2.44,-10.44 -3.71,-15.65 -1.71,-6.93 -3.09,-13.97 -5.22,-20.75 -12.58,-40.27 -32.47,-77.62 -59.98,-110.5 -1.01,-1.17 -2.26,-2.25 -3.26,-3.41 -8.39,-9.72 -17.2,-19.19 -26.95,-28.06 -9.84,-8.95 -20.26,-17.27 -31.21,-25 -77.84,-55.14 -182.61,-79.4 -299.67,-68.2 -149.26,14.03 -297.34,81.72 -417.03,190.62 -119.67,108.89 -194.08,243.62 -209.48,379.41 -13.85,121.48 22.55,228.38 102.42,301.05 0.21,0.16 0.4,0.31 0.56,0.48 3.09,2.77 6.49,5.2 9.67,7.87 57.16,47.89 131.67,76.91 216.7,84.91 0.96,0.09 1.88,0.24 2.79,0.32 8.95,0.79 18.07,1.15 27.27,1.49 4.81,0.16 9.56,0.5 14.44,0.54 1.62,0.02 3.16,0.19 4.78,0.19 2.9,0 5.91,-0.38 8.81,-0.42 13.4,-0.21 26.9,-0.76 40.67,-1.94 1.74,-0.14 3.4,-0.08 5.19,-0.24 1.27,-0.13 2.53,-0.41 3.8,-0.54 78,-7.82 155.23,-31.11 228.52,-66.4 1.53,-0.07 3.3,-0.54 5.51,-1.76 22.34,-12.34 26.62,0.9 27.28,9.65 v 382.24 282.82 c 0,19.05 -13.25,35.9 -31.83,39.99 -394.76,86.88 -782.08,-3.55 -1055.38,-252.34 -238.75,-217.18 -354.24,-530.58 -316.82,-859.79 33.39,-293.23 183.91,-574.94 423.88,-793.33 233.89,-212.79 531.69,-345.86 838.88,-374.801 42.33,-3.918 84.86,-5.938 126.36,-5.938 293.38,0 565.61,100.598 766.54,283.379 190.34,173.3 304.35,411.27 321.08,670.16 l 1.55,1697.91 h 0.17 v 453.97 h 0.06 v 7.92 c 1.72,80.12 67.05,144.58 147.61,144.58 h 190.77 c 14.86,0 26.92,12.05 26.92,26.92 v 441.84 c 0,13.13 -10.63,23.77 -23.78,23.77"
   style="fill:#ffffff;fill-opacity:1;fill-rule:nonzero;stroke:none"
   id="path30" />
    </g>
  </g>
<g
   id="g867"
   transform="matrix(0.33333332,0,0,0.33333332,465.94709,474.07409)"
   style="fill:#ffffff"><path
     d="m 290.55078,282.54297 -38.375,-16.92578 6.45703,-14.64063 23.73438,10.48047 10.46484,-23.73828 14.64844,6.44922 z m 0,0"
     id="path831"
     style="fill:#ffffff" /><path
     d="m 123.16797,338.28125 -14.64844,-6.44922 16.92969,-38.375 38.375,16.92578 -6.45703,14.64063 -23.73438,-10.48047 z m 0,0"
     id="path833"
     style="fill:#ffffff" /><path
     d="M 278.54297,273.60156 C 271.69922,240.08203 242.21094,216.00781 208,216.00781 c -34.21094,0 -63.69922,24.07422 -70.54297,57.59375 l -15.6875,-3.20312 c 8.34375,-40.99219 44.39453,-70.44922 86.23047,-70.44922 41.83594,0 77.88672,29.45703 86.23047,70.44922 z m 0,0"
     id="path835"
     style="fill:#ffffff" /><path
     d="m 208,376 c -41.78906,-0.0898 -77.78516,-29.47656 -86.23047,-70.39844 l 15.6875,-3.20312 c 6.84375,33.51953 36.33203,57.59375 70.54297,57.59375 34.21094,0 63.69922,-24.07422 70.54297,-57.59375 l 15.6875,3.20312 C 285.78516,346.52344 249.78906,375.91016 208,376 Z m 0,0"
     id="path837"
     style="fill:#ffffff" /><path
     d="M 96,224 H 80 v -48 h 48 v 16 H 96 Z m 0,0"
     id="path839"
     style="fill:#ffffff" /><path
     d="m 32,432 h 48 v 16 H 32 Z m 0,0"
     id="path841"
     style="fill:#ffffff" /><path
     d="M 176,0 V 48 H 128 V 96 H 80 v 48 H 48 V 400 H 0 v 64 c 0.0273438,26.5 21.5,47.97266 48,48 h 272 c 26.5,-0.0273 47.97266,-21.5 48,-48 V 144 H 96 v -32 h 304 v 288 h 16 V 96 H 144 V 64 h 304 v 288 h 16 V 48 H 192 V 16 h 304 v 288 h 16 V 0 Z M 48,496 C 30.328125,496 16,481.67187 16,464 v -48 h 256 v 48 c -0.008,11.8125 4.35547,23.21094 12.24609,32 z M 352,160 v 304 c 0,17.67187 -14.32813,32 -32,32 -17.67188,0 -32,-14.32813 -32,-32 V 400 H 64 V 160 Z m 0,0"
     id="path843"
     style="fill:#ffffff" /><path
     d="m 496,336 h 16 v 48 h -16 z m 0,0"
     id="path845"
     style="fill:#ffffff" /><path
     d="m 448,384 h 16 v 48 h -16 z m 0,0"
     id="path847"
     style="fill:#ffffff" /><path
     d="m 400,432 h 16 v 48 h -16 z m 0,0"
     id="path849"
     style="fill:#ffffff" /></g></svg>
